<?xml version='1.0' encoding='utf-8'?>
<svg xmlns="http://www.w3.org/2000/svg" viewBox="0 0 3600 3600"> <defs> <style> .cls-1 { fill-opacity: 0.34; } .cls-10, .cls-2, .cls-3, .cls-9 { fill: #bebebe; } .cls-10, .cls-3, .cls-9 { stroke: #000; } .cls-10, .cls-3, .cls-4, .cls-5, .cls-6, .cls-7, .cls-8, .cls-9 { stroke-linecap: square; } .cls-3 { stroke-width: 7.53px; } .cls-4, .cls-5 { stroke: #4d4d4d; stroke-width: 11.31px; } .cls-5 { fill: #fff; } .cls-6 { fill: #058309; } .cls-6, .cls-7, .cls-8 { stroke: #bebebe; stroke-width: 15.6px; } .cls-7 { fill: #c61f2b; } .cls-8 { fill: #c71f2b; } .cls-9 { stroke-width: 8.88px; } .cls-10 { stroke-width: 7.69px; } </style> </defs> <title>Dart Board</title> <g id="Layer_2" data-name="Layer 2"> <g id="Dart_Board" data-name="Dart Board"> <g> <path class="cls-1" d="M1805.17,3517.84C2753.91,3517.84,3523,2748.74,3523,1800S2753.91,82.16,1805.17,82.16,87.33,851.26,87.33,1800,856.43,3517.84,1805.17,3517.84Z"/> <path d="M1800,3600c994.11,0,1800-805.89,1800-1800S2794.11,0,1800,0,0,805.89,0,1800,805.89,3600,1800,3600Z"/> <path class="cls-2" d="M1822.42,2532.49l-214.47,687-17.24-698.73L1192.32,3095l192.82-672.58L834.52,2845.54l400.86-600.9-683,235.06,570.32-441.47-724.28,9.34,664.36-235.15L387,1601.46l698.73-17.24L511.49,1185.83l688.18,197.29L766.73,819.73l600.9,400.86-235.05-683,434.29,561-9.2-713.76,237,669.56L2005,380.55l17.25,698.73L2420.66,505l-195.88,683.24L2792.54,752l-400.86,600.89,683-235-562.58,435.48,708.25-9.14-679.53,240.52,685.1,213.89-698.73,17.24,574.29,398.39-667.66-191.41,426.49,555-600.9-400.86,235.05,683-442.65-571.86,9.27,718.78-238.68-674.35Z"/> <path class="cls-3" d="M1843.29,3550.57c966.56-23.91,1730.72-826.84,1706.82-1793.4S2723.27,26.45,1756.71,50.35,26,877.19,49.89,1843.75,876.73,3574.47,1843.29,3550.57Zm-.44-17.76C886.1,3556.47,91.32,2800.06,67.65,1843.31S800.4,91.78,1757.15,68.11s1751.53,732.75,1775.2,1689.5S2799.6,3509.14,1842.85,3532.81Z"/> <g> <path class="cls-4" d="M868.2,2746.34,698.54,2537.55l-54.7-74.18L1630.48,1897l153-78.81-82.61,93.12ZM841,2730.79q10.53,10.89,21.24,21.49l-2.44,2.45a1339.28,1339.28,0,0,0,324,236.4l1.61-3.07q13,6.77,26.08,13.23l-22.42-7.43h0A1365,1365,0,0,0,1588.6,3126.3l-23.67-7.85q14.34,2.65,28.73,5l-.58,3.61a1339.27,1339.27,0,0,0,424.9,1l-.5-3.08q12.76-2,25.49-4.2l-19.14,6.35a1352.74,1352.74,0,0,0,405.71-134.53l-12.92,4.29q8.73-4.41,17.42-9l1,1.82a1353.39,1353.39,0,0,0,326.36-239.5l-1.1-1.08q5.08-5,10.1-10.12l-6,8.19a1339.42,1339.42,0,0,0,239.35-326.52l-.9,1.22,2.47-4.7.19.1q15.2-29.36,29.06-59.67l.09-.19h0c.67-1.45,1.32-2.9,2-4.35h0a1353.21,1353.21,0,0,0,112.47-401.38l-.72-.08c.3-2.52.59-5,.87-7.55l.2,4.62a1352.5,1352.5,0,0,0-19.11-432.87l.58,13q-1.59-7.82-3.25-15.59l2-.44a1339.17,1339.17,0,0,0-150.93-394.12l-2.6,1.5q-6.23-10.77-12.65-21.43l13,16a1364.46,1364.46,0,0,0-263.22-324.65l14,17.23q-9.15-8.52-18.47-16.89l2.19-2.43A1339.67,1339.67,0,0,0,2370.81,565l-1.57,3.39q-12.9-5.88-26-11.51l24.85,6.9a1353.07,1353.07,0,0,0-401.77-111.57l21.46,6q-13.32-1.81-26.64-3.34l.38-3.18a1352.44,1352.44,0,0,0-429,19.9l.59,3q-12.36,2.6-24.68,5.41l19-7.29a1339.24,1339.24,0,0,0-391,150.26l15-5.77q-8.94,5-17.8,10.09l-1.16-2A1364.81,1364.81,0,0,0,803.82,893l.8.73q-3.64,4.06-7.26,8.15l3.92-6a1339.42,1339.42,0,0,0-220.53,339.53l1-1.53-2.49,5.51-.24-.11q-21.18,47.27-38.61,95.86-9.85,27.23-18.65,55.12a1361.5,1361.5,0,0,0-44.42,185.35l1,.17q-.87,5.38-1.7,10.79V1580a1339.66,1339.66,0,0,0-.53,428.06l0-12.36q1.2,7.9,2.5,15.81l-1.91.29a1352.6,1352.6,0,0,0,136.65,409.07l2.23-1.15q5.18,9.8,10.51,19.54l-10.7-14.52a1352.85,1352.85,0,0,0,240.16,325.69L841,2730.79Zm409.7,283.5,494.58-1094,52.07-99.32-12.23,107.39L1594.72,3116.83l-223.82-62.7-120.16-39.84Zm538.89-1192,4.29-9.49,4.68-2.41-.37,3.28-8.6,8.62Zm6.16-13.62L1797,1806l2.06.36-.21,1.85-3.06.47Zm2.17-4.81,1-2.19.58.58-.26,2.3-1.31-.69Zm.55-2.62-1.77,2-1.54-.81,2.86-1.64Zm-3.86,4.35-3.34,3.77-11.2,1.72,10.73-6.16,3.81.67Zm283.46,1303.54-263.55-1240-9.89-61.19,2.43,4.1,623.26,1169-231.9,88.2-120.35,39.91Zm-274.9-1293.36-.89-4.18,2.11-4,.07.12-1.29,8.08Zm-1.24-5.85-.25-1.14,2.63-1.35,0,.06-2.42,2.43Zm-.46-2.13-.22-1,3,.52,0,.1Zm-.49-2.33-.46-2.17,3.3,3.32.29.49-3.13-1.64Zm1003,887.66-990.8-881.39,1184.53,601.69-100.36,152.32L2804,2693.12Zm-995-885.1-1.38-1.22,5.7-.94,9.72,4.34-14-2.18Zm-2.17-1.93-.61-.54,2-2,1.89.85-3.23,1.69Zm-1.18-1-.69-.62.35-2.15,1.44.64-1.1,2.13Zm-1.74-1.55-2.56-2.27-.48-.93,2.74,1.22.3,2Zm1336.4,147.29L1829.78,1803.15l1303.73-215.34,7.76,175.74-.88,187.23Zm-1324.8-149.23-4.84-.54,4.46-4.56,17.26-3.72-16.88,8.82Zm-7.62-.86-2.28-.25.32-2,3.52-.76-1.56,3Zm-4.48-.5-2.75-.31-.14-.28,2.71-.58.18,1.17ZM2969.14,1124.3,1827.81,1783.6l925.45-944.12,72.14,89,143.74,195.84Zm-1157,668.37-5.68,3.29.7-4.3,12.85-14.27Zm-9,5.18-2.65,1.53-.12-.23,2.54-2.82.23,1.52Zm562.67-1222-556.76,1204L2022.91,467.93l102.32,28.42,240.58,79.47ZM1802.54,1793.88l-2.31,5-.25-.49,1.43-12,1.13,7.46ZM1535,483.46,1799.24,1797,1186.48,603.7l99.58-38.27,248.92-82ZM810.32,898.88l960.24,874.26,24.18,24.31L1720,1763.13,613.5,1184.91l88.18-135.75L810.32,898.88ZM476.53,1630,1655,1781.19l127.14,22.21L1637,1833.12,485.75,2010.41l-9.41-223.6.19-156.81ZM1787,1798.13l9.68,1.24.86.87-4.66,1-5.88-3.07Z"/> <path class="cls-5" d="M594.64,2394q14.5,29.9,30.39,59l-142.71-403,453.6-82.34,827.81-141L618.25,2457.75a1339.36,1339.36,0,0,0,243.06,319l5.36-5.57q12.81,12.51,26,24.69l867.71-924.69L1204.6,3007.33,895.85,2798.87q8.58,7.9,17.31,15.66L865.68,2781a1352.8,1352.8,0,0,0,330.59,233.38L1160.36,2989q20.92,11.51,42.29,22.28l-2.46,5A1352.56,1352.56,0,0,0,1612,3144.5l.48-3.62c2.91.43,5.82.84,8.73,1.25L1801.4,1876l246.77,1258.8q54-10.14,107.89-24.87a1339.29,1339.29,0,0,0,297-118.2l-.88-1.6q8-4.36,15.82-8.83l-9.75,7.59a1352.86,1352.86,0,0,0,337.22-262.64l-20.69,16.11q11.09-11.58,21.87-23.39l3,2.75a1352.85,1352.85,0,0,0,227.28-335l-6-2.78q11.85-25.14,22.68-50.75l-14.88,49.7a1339.66,1339.66,0,0,0,116.15-387.84L3128,2051.44q5.54-30.15,9.72-60.61l-120,391.64L1809.55,1818.79l9.23,8.42-6.3-3.07-2.93-5.35.79,4.3-1.32-.64.53-3.66L1808,1822l-1-.49,2.53-2.69-3.82,2-2.14-1,6-1-11.31-1.6-9.26-4.51,3.94,3.76-2-.28-1.91-3.48.65,3.3-1.07-.15.42-3.15-1.47,3-1.25-.18,2.72-2.82-4.64,2.55-5.32-.75,10-1.8L464.1,1626.62a1339.43,1339.43,0,0,0,9.81,424.79l8.33-1.51q6,33.15,13.69,65.72l-21.19-59.74a1365,1365,0,0,0,140.67,396.65h0L594.64,2394Zm1160-545.57,23.31-24.23,5.93-1-6.3,12.87-22.94,12.37Zm25.22,33.11,4.81-36.18,8.88-9.47,2.32,11.85-16,33.8Zm6.69-50.31,1.15-8.69,3.13-.53,1.23,6.25-5.51,3ZM2037,3135.81q5.42-.93,10.82-1.89l-420.76,9h0q6.06.81,12.15,1.58l-23.5.51a1339.3,1339.3,0,0,0,428-9.37l-6.67.15ZM1818.27,1866,1806,1843.68l1.85-13,4.73,4.51,5.69,30.8Zm-16.7-30.4-2.88-5.25,4.16-4.44,2.28,2.18-3.56,7.51Zm-5.31-9.67-2.45-4.47,3.71-.64,3,2.84-4.23,2.27Zm872.54,999L2451.48,2989,1825.13,1847.19l943,900.33-99.35,77.38ZM3128.52,1569l-.57-3.12L1836.39,1803.94,2995.09,1163A1352.55,1352.55,0,0,0,2732.67,823.1l-4.84,5.22q-20.37-19.23-41.47-37.55l42.78,29a1353,1353,0,0,0-345-234.1l36.91,25q-11.8-6.11-23.73-12l329.06,231.19-440.75,475.4-452.18,462,304.1-656.35,255.43-514.32q-7-3.4-14-6.74l2.51-5.44a1339.32,1339.32,0,0,0-390.16-115l-.47,3.46c-2.91-.42-5.81-.83-8.72-1.22L1797.57,1753,1566.25,481.41,1976.9,471q-5.67-.75-11.34-1.45l22.61-.51a1365,1365,0,0,0-417.84,9.41l6.67-.15q-5.49.93-11,1.9l-.18-.95a1339.66,1339.66,0,0,0-204.61,54.21,1356.52,1356.52,0,0,0-207,91.19l.81,1.51q-7.1,3.95-14.14,8l10-7.65a1339.6,1339.6,0,0,0-321.51,246l24.53-18.76q-12.3,12.32-24.26,25l-3.21-3.13a1353.16,1353.16,0,0,0-232.7,331.24l5.31,2.69q-6,12.15-11.76,24.41L1657.45,1746,1789,1812.68l-7.54-7.34,4.86,2.32,2.68,5-.72-4.08,1.22.58-.5,3.5,1.5-3,1,.47-2.49,2.55,3.66-2,2,.94-5.63,1,10.7,1.39,9.87,4.72-4.25-4,2.27.29,2,3.7-.65-3.53,1.1.15-.45,3.38,1.5-3.25,1.34.18-2.84,3.07,5-2.79,5.74.74-10.77,2,1335.86,172.54a1365.29,1365.29,0,0,0-8.58-423.91l-8.31,1.57Zm-1307.9,237.85-6.06,1.12,5.65-12.19,21.42-11.59-21,22.66Zm-9.71,1.79-3.11.58-1.11-6.12,5.36-2.9-1.14,8.44Zm-6.19,1.14-4,.74-2.84-2.67,4.48-2.42,2.33,4.35Zm1309.66-308.62L3136,1563a1339.36,1339.36,0,0,0-138.45-395.33l21.55,61.53q-14.91-31.44-31.28-61.81l139.28,394.06q-5.65-30.14-12.74-60.25Zm-1300.6,286.19-8.4,8.57-2.16-11.91,15.11-30.42-4.55,33.76Zm-13.62,13.91-4.44,4.53-2.26-2.13,3.85-7.74,2.85,5.34Zm-7.51-14-2,13.82-4.49-4.22-5.73-32.42,12.21,22.82ZM1155.91,627.74l618.85,1158.32-388.15-365.12L830.84,879.85l325.07-252.11ZM481,1568.6q-5,28-8.81,56.44l113.08-386.79q-3.54,7.59-7,15.25L591,1212.35a1352.47,1352.47,0,0,0-126.1,408.4L481,1568.6Z"/> </g> <g> <g> <path class="cls-6" d="M1014.15,2894.18c604.7,433.36,1446.21,294.48,1879.58-310.21s294.49-1446.21-310.21-1879.58S1137.31,409.9,703.94,1014.6,409.46,2460.81,1014.15,2894.18Zm57-79.54c-560.77-401.89-689.57-1182.27-287.68-1743S1965.75,382,2526.52,783.92,3216.09,1966.2,2814.2,2527,1631.92,3216.53,1071.16,2814.64Zm195.76-344.92c370.27,293.77,908.58,231.76,1202.36-138.52S2701,1422.62,2330.76,1128.84,1422.17,897.09,1128.4,1267.36,896.65,2176,1266.92,2469.72Zm77.37-36.19c-350.29-251-430.74-738.51-179.7-1088.8S1903.1,914,2253.39,1165s430.73,738.52,179.69,1088.8S1694.57,2684.57,1344.29,2433.53Zm349.86-568.17a123.8,123.8,0,1,0,38.61-170.77A123.79,123.79,0,0,0,1694.15,1865.36Z"/> <path class="cls-7" d="M1252.91,2924.78A1264.91,1264.91,0,0,1,947.25,2714l-66.58,71.4a1337.31,1337.31,0,0,0,329.86,227.19l42.38-87.83Zm170.93-354.32,32.84-68.06a790,790,0,0,1-189.6-131.32l-51.47,55.19q25.68,24,53.74,46.33a858.69,858.69,0,0,0,154.49,97.86Zm595.52,461.71A1253.21,1253.21,0,0,1,1620,3038.4l-13.38,96.18a1351.26,1351.26,0,0,0,430.65-6.43l-17.91-96Zm-72.18-386.71-13.86-74.24a782.81,782.81,0,0,1-248.66,2.66l-10.41,74.77a859.76,859.76,0,0,0,272.93-3.19Zm758.27,18.87a1240.56,1240.56,0,0,1-304.75,234.14l47.49,84.87a1363,1363,0,0,0,328.47-252.41l-71.21-66.6Zm-287.4-268.78L2362.93,2344a774.92,774.92,0,0,1-191.29,145.17l36.9,65.94a850.36,850.36,0,0,0,209.51-159.56Zm478.32,191q15.72-21.95,30.44-44.3A1339.57,1339.57,0,0,0,3010,2396.7l-229.73,330.43a1336.86,1336.86,0,0,0,116.1-140.58Zm141.46-605.36A1240.37,1240.37,0,0,1,2924,2350.33l88.11,42.09a1351.11,1351.11,0,0,0,122.26-397.92l-96.52-13.31ZM2648,1927.42l-74.78-10.32a774.69,774.69,0,0,1-72.44,231.09l68.19,32.58a850.09,850.09,0,0,0,79-253.35Zm499.3-178.77a1354.74,1354.74,0,0,0-20.8-187.88l8.27,430.74a1353.64,1353.64,0,0,0,12.53-242.86Zm-162.3-590-86,46.83a1252.07,1252.07,0,0,1,130.42,368.67l96.13-18.24A1350.27,1350.27,0,0,0,2985,1158.65Zm-431.42,235.08-66.35,36.15a781.92,781.92,0,0,1,81.57,231.71l74.2-14.08a856.53,856.53,0,0,0-89.42-253.78Zm420.58-254.67a1360.56,1360.56,0,0,0-94.43-144.39q-26.62-35.59-55.12-68.93a1341,1341,0,0,0-95-99.9l253.17,328.67q-4.24-7.76-8.58-15.45ZM2391.64,591.15l-43.27,87.78a1264.81,1264.81,0,0,1,310,214.26l67.28-71.06a1363.17,1363.17,0,0,0-334-231ZM2174.4,1031.77,2141,1099.55a789.68,789.68,0,0,1,195,134.17l51.88-54.8q-26.1-24.51-54.65-47.19a858.37,858.37,0,0,0-158.79-100ZM1992.2,468.44l394,120.09a1337.54,1337.54,0,0,0-394-120.09Zm-434.7,8.92,16.9,96.39A1253.59,1253.59,0,0,1,1972,564.44l14.07-96.85a1351.64,1351.64,0,0,0-428.58,9.77Zm84.86,483.85,13.05,74.4a782.85,782.85,0,0,1,249.14-7l10.86-74.71a860,860,0,0,0-273.05,7.35ZM1160.32,617l387-137.76a1350.05,1350.05,0,0,0-387,137.76ZM819.66,879.46l70.71,67.67a1240,1240,0,0,1,310.18-240.56l-46.21-86.28A1337.43,1337.43,0,0,0,819.66,879.46Zm355,339.75,54.53,52.18A775.13,775.13,0,0,1,1422,1120l-35.68-66.6a851,851,0,0,0-211.67,165.79Zm-585.17-5.81,225.4-328.8a1363,1363,0,0,0-225.4,328.8Zm-66.28,162.15a1353.78,1353.78,0,0,0-54.75,230.36l96.62,14.85A1240.23,1240.23,0,0,1,674.48,1262.4l-87.9-43.05a1337.88,1337.88,0,0,0-63.39,156.2Zm430.81,305,74.61,11.47a774.9,774.9,0,0,1,67.06-223.36l-67.87-33.23A850.46,850.46,0,0,0,954,1680.54Zm-499,70.94A1354.56,1354.56,0,0,0,474.85,2037l-7.29-425A1355.69,1355.69,0,0,0,455,1751.48Zm106,576.79q25.14,59.1,56.32,116.42l85.81-46.46a1252.08,1252.08,0,0,1-130.61-370.91l-96.32,17.24A1352.85,1352.85,0,0,0,561,2328.27Zm488.11-117.36,66.44-36a782,782,0,0,1-81.47-230.24L959.75,1958a856,856,0,0,0,89.37,252.9ZM876.35,2781.35,619.51,2448.67a1363.56,1363.56,0,0,0,256.83,332.68ZM1216,3015.26a1351.15,1351.15,0,0,0,386.3,118.68Zm825,112.22a1337.51,1337.51,0,0,0,403.21-142Z"/> </g> <path class="cls-8" d="M1749.1,1823.81a55.94,55.94,0,1,0,27.87-74A55.94,55.94,0,0,0,1749.1,1823.81Z"/> </g> <g> <path class="cls-9" d="M1210.45,3364l50.09-164.12a10.75,10.75,0,0,0-7-13.23,13.11,13.11,0,0,0-7.53.47l-44.73,20.51a10.52,10.52,0,0,0-5.69,6.57,10.8,10.8,0,0,0,7,13.51c2,.6,5.22.05,7.9-.67l23-10.83-43.21,141.6a10.59,10.59,0,1,0,20.26,6.19Zm201.33-49.65c12.2-40-3.47-81.38-45.14-94.1-40.25-12.28-91,18.72-102.89,57.85-7.82,25.61,3.14,50.19,29.33,58.18,40,12.2,89.37-18.58,101.59-57.62a67,67,0,0,1-2.31,29.76C1380,3349,1340.65,3369,1300,3372.24c-12,1-23.17.31-34.93-.5-4.84-.25-9.25,2.09-10.8,7.16a10.38,10.38,0,0,0,6.57,12.78,4.44,4.44,0,0,0,2,.32c17.92,1.77,36,2.06,53.88-1.1C1359.55,3383.66,1398.38,3358.27,1411.78,3314.36Zm-35.24-41.84c-8.76,28.72-48.82,53.11-77.54,44.35-15.2-4.64-20.46-17.63-15.83-32.84,8.77-28.71,48.55-53.19,77.26-44.43C1375.63,3244.24,1381.27,3257,1376.54,3272.52Z"/> <path class="cls-9" d="M532.12,763.71c-29.91-29.19-73.89-34.28-104.31-3.1-29.4,30.12-25.14,89.39,4.14,118,19.17,18.71,46,20.25,65.15.66,29.2-29.91,24.53-87.92-4.54-116.71,9.4,3,18.42,8.94,25.38,15.72,30.33,29.6,30,73.73,14.26,111.39-4.65,11.09-10.36,20.73-16.49,30.79-2.44,4.2-2.38,9.19,1.41,12.89a10.37,10.37,0,0,0,14.36,0,4.44,4.44,0,0,0,1.23-1.68c9.81-15.11,18.35-31,23.76-48.37C569.71,841.92,565,795.78,532.12,763.71ZM478.78,775.8c21.48,21,24.76,67.76,3.79,89.25-11.1,11.37-25.06,10.09-36.44-1-21.48-21-25-67.55-4-89C453.23,763.63,467.19,764.5,478.78,775.8Z"/> <path class="cls-9" d="M252.79,2361.57c29.9-3.67,44.79-29.2,45.4-55.2,8.16,4.69,18,7.59,28,6.37,24.91-3,32.95-27.75,30.47-48-3.4-27.72-29.89-65.88-63.53-61.76-15,1.83-24.74,12.2-28.9,24.72-18.09-18.64-47-35-74.38-31.66-34.89,4.28-46.33,37.29-42.78,66.26C152.81,2309.33,200.46,2368,252.79,2361.57Zm71-70.36c-19.32,2.37-37.39-23.87-39.76-43.18-1.3-10.59,2-22.37,11-23.48,19.31-2.37,37.43,24.18,39.76,43.18C336.17,2278.32,333.18,2290.07,323.84,2291.21Zm-73.69,48.87c-38,4.66-76.65-42.45-81.35-80.76-2.4-19.63,3.72-39.35,23.65-41.79,38-4.66,78.95,45.65,83.26,80.85C278,2317.38,270.4,2337.6,250.15,2340.08Z"/> <path class="cls-9" d="M952,3049.27a10.81,10.81,0,0,0-4.31-14.57l-106-59.49a10.6,10.6,0,0,0-10.38,18.48l88.81,49.84-164.37,83.6a10.61,10.61,0,0,0-.36,18.69,10.37,10.37,0,0,0,10,.22l181.93-92.64A11,11,0,0,0,952,3049.27Z"/> <path class="cls-9" d="M3446.44,1835.54c26-6.44,41.39-28.76,34.8-55.33-10-40.28-61.84-67.14-101.9-57.51a69,69,0,0,1,27-13.37c41.13-10.2,78.49,13.28,102.2,46.52,7,9.79,12.17,19.73,17.51,30.23,2.27,4.29,6.55,6.87,11.69,5.59a10.36,10.36,0,0,0,7.59-12.19,4.29,4.29,0,0,0-.78-1.93c-7.68-16.29-16.64-31.66-28.61-45.67-28.13-32.75-70.21-53.24-114.49-42.26-40.57,10.06-68.26,45.13-57.78,87.41C3353.75,1817.59,3406.45,1845.46,3446.44,1835.54Zm-4.89-19.71c-29.14,7.23-70.64-14.62-77.87-43.76-3.82-15.43,4.26-26.83,20-30.73,29.14-7.23,70.64,14.62,77.87,43.76C3465.35,1800.53,3457,1812,3441.55,1815.83Z"/> <path class="cls-9" d="M1356.79,241.56c-10.52-32.8-45-38.13-72.17-29.41-14.3,4.58-26.58,12.54-38.41,21l-13.57-42.32L1306.92,167a10.3,10.3,0,0,0-6.29-19.62l-83.81,26.87a10.18,10.18,0,0,0-6.38,12.87l20.94,65.3a10,10,0,0,0,12.67,6.76,5.3,5.3,0,0,0,2.62-1.46c14.17-9.8,28-20.72,44.52-26,18.77-6,40.06-3.26,46.35,16.36,10.33,32.23-28.73,70.41-78.42,92.83-4.86,2.18-6.88,7.46-5.26,12.5,2.07,6.45,7.91,8.28,13.24,6.58l.19-.37C1312.51,344.46,1373.23,292.85,1356.79,241.56Z"/> <path class="cls-9" d="M3134.14,895.36A10.74,10.74,0,0,0,3136,880.5L3122,862.35l35.83-27.76a10.59,10.59,0,1,0-13-16.75L3109,845.6l-42.17-54.45,133.94,4.21a10.34,10.34,0,0,0,7-2.05c5.35-4.14,5.14-10.68,1.71-15.1a9.89,9.89,0,0,0-7.89-3.94l-156.68-5.21a11.14,11.14,0,0,0-6.8,2.28,10.57,10.57,0,0,0-1.89,14.87l56.06,72.36-31.88,24.7a10.6,10.6,0,1,0,13,16.75l31.88-24.69,14.06,18.15A10.73,10.73,0,0,0,3134.14,895.36Z"/> <path class="cls-9" d="M1877.17,3449.16c8.64-29.06-12.31-51.56-36.92-60.71a38,38,0,0,0,14.89-20.14c6.63-22.29-7.14-39-26.61-44.76-15.52-4.61-38.29-3.4-53.33.73-3.41,1.13-6.51,3.28-7.68,7.23-1.76,5.93,1.94,11,7,12.53a11.69,11.69,0,0,0,4.48.41c15-2.91,29.82-5.26,43.64-1.15,10.44,3.1,15.9,10.56,13,20.43-3.52,11.85-11.23,18.16-31.22,16.21-7.84-.49-24.44-1.43-34.34-2.23-6-.55-11.84-.45-14.11,7.17a9.69,9.69,0,0,0,6.46,12.36l1.41.42c7.47.69,17.62.63,28.73,1.48,11.2.56,22.79,1.86,33.51,5,18.62,5.54,37.51,19.45,31.64,39.19-9.47,31.88-67,43.64-123.59,33.58a10.23,10.23,0,0,0-11.4,7.36c-1.84,6.21,1.86,11.3,7.22,12.89l.65-.11C1785.65,3512.23,1862.91,3497.12,1877.17,3449.16Z"/> <path class="cls-9" d="M2798.76,3029.93c-17.73-29.86-54-29.88-79.58-14.7-15.95,9.47-32.69,28-40,45.65-1.23,3.12-1.65,6.45.31,9.74a10,10,0,0,0,13.86,3.75,10.12,10.12,0,0,0,3.8-4c8.51-15.66,17.7-29,32.64-37.86,17.46-10.37,40.78-10.86,51.75,7.61,8.56,14.43,4.34,32.68-2.59,48.09-16,36.53-27,68.07-23.63,109.53a19.2,19.2,0,0,0,1.84,5.41c2.71,4.56,8.09,7.86,14.17,4.26l87.31-51.84a10.16,10.16,0,0,0-10.37-17.47l-73.39,43.58c.14-30.89,9.8-56.14,22.5-84.9C2806.37,3076.76,2811.53,3051.45,2798.76,3029.93Z"/> <path class="cls-9" d="M1774.81,127.71c-.39-31.64-29-48.18-56.09-47.85-16.89.21-38.53,7.18-52.34,17.8-2.39,1.91-4.24,4.34-4.2,7.83a9.09,9.09,0,0,0,9.23,9.27,9.23,9.23,0,0,0,4.81-1.4c13.84-8.48,27.17-14.81,43-15,18.5-.23,37.13,10,37.37,29.57.18,15.29-11.46,27.77-24,36.77-29.23,21.54-52.32,41.39-68.53,75.65a17.49,17.49,0,0,0-1,5.1c.06,4.83,2.81,9.89,9.24,9.81l92.5-1.12a9.25,9.25,0,0,0-.23-18.5l-77.75.94c14.19-24.3,33.3-39.82,56.43-56.73C1759.48,168.12,1775.09,150.5,1774.81,127.71Zm130.81-27.37c-20.54-27.5-54-36-82.77-14.48C1778,119.4,1772.75,201.6,1805,244.78c20.54,27.49,54.15,36.19,82.94,14.69C1932.83,225.93,1937.87,143.52,1905.62,100.34Zm-15,11.23c26.64,35.66,22.43,105.74-13.88,132.86-20,14.93-41.9,8.88-56.5-10.67-26.64-35.66-22.64-105.58,13.88-132.86C1854.06,86,1875.82,91.81,1890.58,111.57Z"/> <path class="cls-9" d="M2658.14,499.72,2758,360.2a10.73,10.73,0,0,0-2.45-14.78,13,13,0,0,0-7.28-2l-48.93,5.14a10.53,10.53,0,0,0-7.5,4.41,10.8,10.8,0,0,0,2.27,15c1.68,1.2,4.93,1.72,7.7,1.89l25.25-2.91-86.18,120.37a10.6,10.6,0,1,0,17.23,12.34Zm194.39,46.51c16.45-23,8.27-49.47-9.3-66.39,8.42-2.66,16.67-7.61,22.16-15.27,13.7-19.14,1.75-40.37-13.8-51.51-21.3-15.25-64.48-21.18-83,4.67-8.22,11.48-7.28,24.83-1.27,35.65-24.36.65-54,10.2-69.08,31.26-19.19,26.81-3.66,55.67,18.6,71.6C2753,582.11,2823.75,586.43,2852.53,546.23ZM2849,452.51c-10.62,14.84-40.21,10.66-55.05,0-8.13-5.82-14.18-15.58-9.21-22.52,10.62-14.84,40.45-10.5,55,0C2848,435.81,2854.18,445.33,2849,452.51Zm-13,81.89c-20.9,29.2-78,26-107.41,4.92-15.07-10.8-24.81-27.54-13.84-42.86,20.9-29.19,81.63-25.53,108.67-6.17C2838,500.74,2847.16,518.85,2836,534.4Z"/> <path class="cls-9" d="M2305.92,3422.9l-45.84-165.36a10.74,10.74,0,0,0-13-7.38,13.11,13.11,0,0,0-6.1,4.44l-26.73,41.31a10.57,10.57,0,0,0-1.28,8.6,10.81,10.81,0,0,0,13.12,7.67c2-.55,4.43-2.76,6.31-4.8l13.59-21.49,39.55,142.67a10.59,10.59,0,0,0,20.42-5.66Zm114.4-207.63A10.8,10.8,0,0,0,2407,3208l-117.14,32.46a10.6,10.6,0,1,0,5.65,20.43l98.14-27.21-57.74,175.14a10.62,10.62,0,0,0,12.91,13.52,10.39,10.39,0,0,0,7.25-6.9l63.84-193.92A11,11,0,0,0,2420.32,3215.27Z"/> <path class="cls-9" d="M387.13,2705.07l147.55-87.61a10.73,10.73,0,0,0,3.7-14.52,13.12,13.12,0,0,0-5.88-4.72l-46.88-14.95a10.47,10.47,0,0,0-8.64,1,10.81,10.81,0,0,0-4,14.67c1.05,1.77,3.82,3.55,6.29,4.82l24.29,7.48-127.3,75.59a10.6,10.6,0,0,0,10.82,18.22Zm154.48,116c23-13.67,31.33-39.48,17.36-63-21.19-35.69-78.59-46.45-114.17-25.67a68.9,68.9,0,0,1,22-20.59c36.44-21.64,79-9.94,111.28,15.05,9.5,7.36,17.34,15.37,25.48,23.89,3.42,3.45,8.26,4.68,12.81,2a10.38,10.38,0,0,0,3.75-13.87,4.41,4.41,0,0,0-1.3-1.62c-12.06-13.38-25.07-25.5-40.58-35.47-36.38-23.23-82.59-30.72-121.81-7.43-35.94,21.34-52.34,62.91-30.1,100.37C447.68,2830.68,506.18,2842.16,541.61,2821.12Zm-10.37-17.46c-25.81,15.33-71.86,6.38-87.18-19.43-8.12-13.67-3.66-26.93,10.26-35.19,25.81-15.33,71.86-6.38,87.18,19.43C549.62,2782.14,544.91,2795.54,531.24,2803.66Z"/> <path class="cls-9" d="M3162.69,2827.69l-133.5-107.81a10.75,10.75,0,0,0-14.9,1.59,13.07,13.07,0,0,0-2.38,7.16l2.31,49.15a10.49,10.49,0,0,0,4,7.74,10.8,10.8,0,0,0,15.13-1.4c1.29-1.6,2-4.82,2.33-7.57l-1.45-25.38,115.18,93a10.6,10.6,0,1,0,13.32-16.49Zm38.95-164.88c-26.79-21.64-58.52-7.17-76.46,15-9.43,11.68-15.33,25.07-20.59,38.61L3070,2688.54l49-60.68a10.3,10.3,0,0,0-16-13l-55.29,68.47a10.18,10.18,0,0,0,1.73,14.26l53.35,43.08a10,10,0,0,0,14.3-1.31,5.21,5.21,0,0,0,1.39-2.66c6.47-16,12-32.67,22.92-46.18,12.39-15.34,31.7-24.72,47.72-11.78,26.34,21.27,14.65,74.62-14.57,120.64-2.87,4.49-1.66,10,2.47,13.34,5.26,4.26,11.16,2.58,14.67-1.77l0-.41C3221.13,2773.12,3243.55,2696.65,3201.64,2662.81Z"/> <path class="cls-9" d="M318.87,1332.51l-161.08-59.14a10.74,10.74,0,0,0-13.6,6.29,13.12,13.12,0,0,0,.05,7.55l18,45.79a10.53,10.53,0,0,0,6.24,6.06,10.81,10.81,0,0,0,13.88-6.2c.71-1.93.34-5.2-.23-7.92l-9.53-23.56,139,51a10.59,10.59,0,0,0,7.3-19.89Zm13.54-183.78a10.73,10.73,0,0,0-13.59,6.29l-7.92,21.56L268.36,1161a10.6,10.6,0,0,0-7.31,19.9l42.55,15.62-23.74,64.65L212.3,1145.39a10.33,10.33,0,0,0-5.44-4.82c-6.35-2.33-11.77,1.32-13.7,6.57a9.91,9.91,0,0,0,.85,8.78l78.79,135.53a11.14,11.14,0,0,0,5.55,4.55,10.56,10.56,0,0,0,13.6-6.3l31.54-85.93,37.85,13.9a10.6,10.6,0,0,0,7.31-19.89l-37.85-13.9,7.91-21.55A10.74,10.74,0,0,0,332.41,1148.73Z"/> <path class="cls-9" d="M3260.67,1253.88l166.84-40.09a10.75,10.75,0,0,0,7.83-12.78,13.1,13.1,0,0,0-4.23-6.25l-40.36-28.14a10.52,10.52,0,0,0-8.55-1.57,10.8,10.8,0,0,0-8.12,12.84c.49,2,2.6,4.52,4.58,6.47l21,14.33-143.94,34.59a10.59,10.59,0,1,0,5,20.6Zm112,139.88c29.48-7.09,38.46-36.49,34.05-62.37a38,38,0,0,0,24.89,2.8c22.61-5.44,30.15-25.71,25.4-45.46-3.78-15.74-16.24-34.84-27.35-45.79-2.69-2.38-6.1-4-10.11-3-6,1.44-8.56,7.2-7.32,12.35a11.75,11.75,0,0,0,1.89,4.09c10,11.51,19.49,23.16,22.86,37.19,2.54,10.58-1.17,19-11.19,21.45-12,2.89-21.34-.62-29.67-18.9-3.5-7-11-21.88-15.28-30.84-2.52-5.45-5.54-10.47-13.27-8.61a9.68,9.68,0,0,0-7.46,11.78c.14.57.21.86.34,1.43,3.16,6.81,8.29,15.57,13.12,25.6,5.12,10,9.8,20.65,12.42,31.53,4.54,18.89,2,42.21-18.07,47-32.33,7.77-71.34-36.13-91-90.14a10.24,10.24,0,0,0-12.08-6.18c-6.3,1.52-8.85,7.28-7.54,12.71l.42.51C3272.24,1346.15,3324,1405.45,3372.68,1393.76Z"/> <path class="cls-9" d="M860.55,564.73,752.24,431.64a10.75,10.75,0,0,0-14.91-1.53,13.08,13.08,0,0,0-3.81,6.51l-7.91,48.57a10.48,10.48,0,0,0,2.28,8.39A10.8,10.8,0,0,0,743,495.34c1.6-1.3,2.95-4.3,3.85-6.93l3.83-25.13,93.45,114.83a10.6,10.6,0,1,0,16.44-13.38Zm34.72-195.61c-21.93-26.94-57.83-21.63-80.88-2.86-14.39,11.7-28.23,32.46-32.86,51-.75,3.27-.68,6.63,1.74,9.6a10,10,0,0,0,14.26,1.67,10.09,10.09,0,0,0,3.18-4.49c6.11-16.73,13.26-31.28,26.72-42.24,15.76-12.81,38.75-16.73,52.31-.07,10.6,13,9.1,31.69,4.5,48C873.8,468.18,867.51,501,877,541.51a18.64,18.64,0,0,0,2.62,5.08c3.34,4.11,9.15,6.59,14.63,2.14L973,484.63a10.16,10.16,0,0,0-12.82-15.75l-66.2,53.88c-4.4-30.58,1.45-57,9.79-87.29C909.67,414.32,911.06,388.52,895.27,369.12Z"/> <path class="cls-9" d="M279.85,1810.93l-204.13,2.49a12.8,12.8,0,0,0-12.46,12.76,15.64,15.64,0,0,0,3.26,8.37l39.4,43.29a12.51,12.51,0,0,0,9.51,4.09,12.86,12.86,0,0,0,12.8-12.76c0-2.45-1.83-5.93-3.61-8.71L104,1838.29l176.13-2.15a12.61,12.61,0,0,0-.31-25.21Zm-1.19-98-204.14,2.49a12.78,12.78,0,0,0-12.45,12.76,15.55,15.55,0,0,0,3.25,8.37l39.4,43.29a12.54,12.54,0,0,0,9.51,4.09,12.86,12.86,0,0,0,12.8-12.77c0-2.45-1.82-5.93-3.61-8.71l-20.58-22.16L279,1738.1a12.61,12.61,0,0,0-.31-25.21Z"/> <path class="cls-9" d="M2294.3,341.83l53.76-162.95a10.73,10.73,0,0,0-6.74-13.38,13.08,13.08,0,0,0-7.54.3l-45.17,19.5a10.49,10.49,0,0,0-5.84,6.44,10.79,10.79,0,0,0,6.65,13.66c1.95.64,5.21.17,7.91-.49l23.23-10.31-46.38,140.59a10.59,10.59,0,0,0,20.12,6.64Z"/> <g> <path class="cls-10" d="M3411.67,2348.19l-172.31-74.79a11.76,11.76,0,0,0-15.26,6,14.34,14.34,0,0,0-.41,8.24l16.77,51.19a11.48,11.48,0,0,0,6.44,7,11.83,11.83,0,0,0,15.55-5.89c.9-2.07.7-5.67.25-8.68l-8.93-26.35,148.66,64.53a11.6,11.6,0,0,0,9.24-21.28Z"/> <path class="cls-10" d="M3305.88,2144.73c-35.24,9.9-56.51,39.94-46.14,76.83,16.17,57.55,96,94.24,151.33,78.69,35.24-9.9,56.79-40,46.42-76.91C3441.32,2165.79,3361.23,2129.18,3305.88,2144.73Zm5.42,19.27c45.7-12.84,113.84,18.22,126.92,64.75,7.19,25.61-7.23,45.11-32.29,52.15-45.71,12.84-113.77-18-126.92-64.75C3271.82,2190.54,3286,2171.12,3311.3,2164Z"/> </g> </g> </g> </g> </g> </svg>